<mxfile host="app.diagrams.net" modified="2022-06-16T07:52:39.867Z" agent="5.0 (Macintosh; Intel Mac OS X 10_13_6) AppleWebKit/537.36 (KHTML, like Gecko) Chrome/102.0.0.0 Safari/537.36" etag="nxCXsoS-o_p40y3qDGyv" version="20.0.1" type="github">
  <diagram id="Is7nYFCBdMyNHaLq8IZW" name="第 1 页">
    <mxGraphModel dx="786" dy="914" grid="0" gridSize="10" guides="1" tooltips="1" connect="1" arrows="1" fold="1" page="0" pageScale="1" pageWidth="827" pageHeight="1169" math="0" shadow="0">
      <root>
        <mxCell id="0" />
        <mxCell id="1" parent="0" />
        <mxCell id="Ze9WNTJIO-SWY4tIP-nF-4" style="edgeStyle=orthogonalEdgeStyle;orthogonalLoop=1;jettySize=auto;html=1;exitX=0.5;exitY=1;exitDx=0;exitDy=0;entryX=0.5;entryY=0;entryDx=0;entryDy=0;sketch=1;rounded=1;" edge="1" parent="1" source="AUB2p11LhJhiM78vF_-q-24" target="Ze9WNTJIO-SWY4tIP-nF-2">
          <mxGeometry relative="1" as="geometry" />
        </mxCell>
        <mxCell id="AUB2p11LhJhiM78vF_-q-24" value="Java Source" style="rounded=0;whiteSpace=wrap;html=1;comic=1;fontSize=16;fontFamily=Comic Sans MS;fillColor=#f5f5f5;strokeColor=#666666;glass=0;sketch=0;shadow=0;fontColor=#333333;" parent="1" vertex="1">
          <mxGeometry x="68" y="-371" width="147.5" height="60" as="geometry" />
        </mxCell>
        <mxCell id="Ze9WNTJIO-SWY4tIP-nF-9" style="edgeStyle=orthogonalEdgeStyle;rounded=1;sketch=1;orthogonalLoop=1;jettySize=auto;html=1;exitX=0.5;exitY=1;exitDx=0;exitDy=0;" edge="1" parent="1" source="Ze9WNTJIO-SWY4tIP-nF-1" target="Ze9WNTJIO-SWY4tIP-nF-6">
          <mxGeometry relative="1" as="geometry" />
        </mxCell>
        <mxCell id="Ze9WNTJIO-SWY4tIP-nF-1" value="第三方库.class文件" style="rounded=0;whiteSpace=wrap;html=1;comic=1;fontSize=16;fontFamily=Comic Sans MS;fillColor=#f5f5f5;strokeColor=#666666;glass=0;sketch=0;shadow=0;fontColor=#333333;" vertex="1" parent="1">
          <mxGeometry x="274" y="-371" width="147.5" height="60" as="geometry" />
        </mxCell>
        <mxCell id="Ze9WNTJIO-SWY4tIP-nF-5" style="edgeStyle=orthogonalEdgeStyle;rounded=1;sketch=1;orthogonalLoop=1;jettySize=auto;html=1;exitX=0.5;exitY=1;exitDx=0;exitDy=0;entryX=0.5;entryY=0;entryDx=0;entryDy=0;" edge="1" parent="1" source="Ze9WNTJIO-SWY4tIP-nF-2" target="Ze9WNTJIO-SWY4tIP-nF-3">
          <mxGeometry relative="1" as="geometry" />
        </mxCell>
        <mxCell id="Ze9WNTJIO-SWY4tIP-nF-2" value="Java Compiler" style="rounded=0;whiteSpace=wrap;html=1;comic=1;fontSize=16;fontFamily=Comic Sans MS;fillColor=#f5f5f5;strokeColor=#666666;glass=0;sketch=0;shadow=0;fontColor=#333333;" vertex="1" parent="1">
          <mxGeometry x="66" y="-274" width="147.5" height="60" as="geometry" />
        </mxCell>
        <mxCell id="Ze9WNTJIO-SWY4tIP-nF-10" style="edgeStyle=orthogonalEdgeStyle;rounded=1;sketch=1;orthogonalLoop=1;jettySize=auto;html=1;exitX=0.5;exitY=1;exitDx=0;exitDy=0;entryX=0.5;entryY=0;entryDx=0;entryDy=0;" edge="1" parent="1" source="Ze9WNTJIO-SWY4tIP-nF-3" target="Ze9WNTJIO-SWY4tIP-nF-6">
          <mxGeometry relative="1" as="geometry" />
        </mxCell>
        <mxCell id="Ze9WNTJIO-SWY4tIP-nF-3" value=".class文件" style="rounded=0;whiteSpace=wrap;html=1;comic=1;fontSize=16;fontFamily=Comic Sans MS;fillColor=#f5f5f5;strokeColor=#666666;glass=0;sketch=0;shadow=0;fontColor=#333333;" vertex="1" parent="1">
          <mxGeometry x="66" y="-177" width="147.5" height="60" as="geometry" />
        </mxCell>
        <mxCell id="Ze9WNTJIO-SWY4tIP-nF-12" style="edgeStyle=orthogonalEdgeStyle;rounded=1;sketch=1;orthogonalLoop=1;jettySize=auto;html=1;exitX=0.5;exitY=1;exitDx=0;exitDy=0;" edge="1" parent="1" source="Ze9WNTJIO-SWY4tIP-nF-6" target="Ze9WNTJIO-SWY4tIP-nF-11">
          <mxGeometry relative="1" as="geometry" />
        </mxCell>
        <mxCell id="Ze9WNTJIO-SWY4tIP-nF-6" value="ASM插入隐私合规检查代码" style="rounded=0;whiteSpace=wrap;html=1;comic=1;fontSize=16;fontFamily=Comic Sans MS;fillColor=#d5e8d4;strokeColor=#82b366;glass=0;sketch=0;shadow=0;" vertex="1" parent="1">
          <mxGeometry x="134" y="-68" width="206" height="60" as="geometry" />
        </mxCell>
        <mxCell id="Ze9WNTJIO-SWY4tIP-nF-14" style="edgeStyle=orthogonalEdgeStyle;rounded=1;sketch=1;orthogonalLoop=1;jettySize=auto;html=1;exitX=0.5;exitY=1;exitDx=0;exitDy=0;entryX=0.5;entryY=0;entryDx=0;entryDy=0;" edge="1" parent="1" source="Ze9WNTJIO-SWY4tIP-nF-11" target="Ze9WNTJIO-SWY4tIP-nF-13">
          <mxGeometry relative="1" as="geometry" />
        </mxCell>
        <mxCell id="Ze9WNTJIO-SWY4tIP-nF-11" value="Dex文件" style="rounded=0;whiteSpace=wrap;html=1;comic=1;fontSize=16;fontFamily=Comic Sans MS;fillColor=#f5f5f5;strokeColor=#666666;glass=0;sketch=0;shadow=0;fontColor=#333333;" vertex="1" parent="1">
          <mxGeometry x="134" y="27" width="206" height="60" as="geometry" />
        </mxCell>
        <mxCell id="Ze9WNTJIO-SWY4tIP-nF-13" value="APK" style="rounded=0;whiteSpace=wrap;html=1;comic=1;fontSize=16;fontFamily=Comic Sans MS;fillColor=#f5f5f5;strokeColor=#666666;glass=0;sketch=0;shadow=0;fontColor=#333333;" vertex="1" parent="1">
          <mxGeometry x="134" y="116" width="206" height="60" as="geometry" />
        </mxCell>
      </root>
    </mxGraphModel>
  </diagram>
</mxfile>
